<svg width="26.250000" height="22.494690" viewBox="0 0 26.25 24" fill="none" xmlns="http://www.w3.org/2000/svg" xmlns:xlink="http://www.w3.org/1999/xlink">
	<desc>
			Created with Pixso.
	</desc>
	<defs/>
	<path id="Vector" d="M18.9844 0C16.5645 0 14.4457 1.04062 13.125 2.79962C11.8043 1.04062 9.68555 0 7.26562 0C5.33932 0.00216675 3.49255 0.768341 2.13046 2.13046C0.768341 3.49255 0.00216675 5.33932 0 7.26562C0 15.4688 12.1629 22.1086 12.6808 22.3828C12.8174 22.4562 12.97 22.4947 13.125 22.4947C13.28 22.4947 13.4326 22.4562 13.5692 22.3828C14.0871 22.1086 26.25 15.4688 26.25 7.26562C26.2478 5.33932 25.4817 3.49255 24.1195 2.13046C22.7574 0.768341 20.9107 0.00216675 18.9844 0ZM13.125 20.4844C10.9852 19.2375 1.875 13.5574 1.875 7.26562C1.87686 5.83652 2.4454 4.46646 3.45593 3.45593C4.46646 2.4454 5.83652 1.87686 7.26562 1.875C9.54492 1.875 11.4586 3.08905 12.2578 5.03906C12.3284 5.211 12.4486 5.35809 12.603 5.46158C12.7574 5.56509 12.9391 5.62033 13.125 5.62033C13.3109 5.62033 13.4926 5.56509 13.647 5.46158C13.8014 5.35809 13.9216 5.211 13.9922 5.03906C14.7914 3.08554 16.7051 1.875 18.9844 1.875C20.4135 1.87686 21.7835 2.4454 22.7941 3.45593C23.8046 4.46646 24.3731 5.83652 24.375 7.26562C24.375 13.548 15.2625 19.2363 13.125 20.4844Z" fill="#000000" fill-opacity="1.000000" fill-rule="nonzero"/>
</svg>
