<svg data-name="Layer 1" id="Layer_1" viewBox="0 0 27 27" xmlns="http://www.w3.org/2000/svg"><defs><style>.cls-1{fill:#564c4d;}</style></defs><title/><path class="cls-1" d="M264,124a59.93,59.93,0,0,0-68.1-59.44,60,60,0,0,0-119.8,0A60,60,0,0,0,38.74,176.38,60,60,0,0,0,136,244.78a60,60,0,0,0,97.26-68.4A60,60,0,0,0,264,124Zm-34.65,45.4-6.77,3.79,3.58,6.88A51.32,51.32,0,0,1,232,204a52,52,0,0,1-90.13,35.34L136,233l-5.87,6.33A52,52,0,0,1,40,204a51.32,51.32,0,0,1,5.84-23.93l3.58-6.88-6.77-3.79A52,52,0,0,1,75,72.49l8.57,1.16L84.09,65a52,52,0,0,1,103.82,0l.49,8.64L197,72.49a52,52,0,0,1,32.38,96.91Z"/><path class="cls-1" d="M136,102a42,42,0,1,0,42,42A42,42,0,0,0,136,102Zm0,76a34,34,0,1,1,34-34A34,34,0,0,1,136,178Z"/></svg>