<svg width="18.867065" height="21.981934" viewBox="0 0 18.8671 21.9819" fill="none" xmlns="http://www.w3.org/2000/svg" xmlns:xlink="http://www.w3.org/1999/xlink">
	<desc>
			Created with Pixso.
	</desc>
	<defs/>
	<path id="Vector" d="M12.7192 1.6416L12.634 1.73535C12.5234 1.85645 12.4114 1.97656 12.298 2.09521C12.2388 2.01709 12.1796 1.93896 12.1205 1.86133C11.7509 1.38135 11.4388 1.02832 11.1041 0.746582C10.6456 0.358887 10.168 0.124512 9.61365 0.124512C9.31366 0.124512 9.02924 0.197754 8.76166 0.328613C8.17603 0.611816 7.74164 1.08594 7.16205 1.896C7.11377 1.96387 7.0658 2.03174 7.01807 2.1001C6.90765 1.9917 6.78168 1.8623 6.63403 1.70752L6.55365 1.62354C5.88885 0.925293 5.71246 0.747559 5.41486 0.505371C5.13403 0.275879 4.88086 0.121094 4.56885 0.0444336C4.23761 -0.0424805 3.8858 -0.000976562 3.5838 0.160645C3.28186 0.322266 3.05212 0.591797 2.94043 0.915527C2.58978 1.88818 2.41156 2.91406 2.41364 3.94775C2.41364 8.67578 5.06805 12.0024 9.61365 12.0024C14.1592 12.0024 16.8137 8.67725 16.8137 3.94775C16.816 2.91406 16.6373 1.8877 16.2856 0.915527C16.1745 0.59082 15.9441 0.320312 15.6411 0.15918C15.3381 -0.00244141 14.9852 -0.0424805 14.6536 0.046875C14.3392 0.126953 14.0897 0.285645 13.8137 0.520508C13.5256 0.763184 13.3636 0.936035 12.7192 1.6416ZM9.61365 9.60254C6.52728 9.60254 4.81366 7.4541 4.81366 3.94775C4.81366 3.73193 4.82446 3.51953 4.84363 3.30811L4.90002 3.36572C5.38965 3.87939 5.69208 4.17236 6.00403 4.41211C6.78168 5.00732 7.56885 5.23926 8.28888 4.41602C8.41846 4.26855 8.54565 4.10156 8.71606 3.86035L8.80603 3.73096L9.11444 3.29297C9.32446 2.99756 9.50085 2.78027 9.62927 2.64453C9.84369 2.85693 10.0414 3.08496 10.2208 3.32764C10.1669 3.25781 10.8809 4.21191 11.0609 4.41602C11.7833 5.24268 12.5801 5.00391 13.3397 4.40381C13.6396 4.16406 13.9301 3.87256 14.3884 3.37207C14.4053 3.5625 14.4136 3.75488 14.4136 3.94775C14.4136 7.45557 12.7001 9.60254 9.61365 9.60254Z" fill="#E79EA8" fill-opacity="1.000000" fill-rule="evenodd"/>
	<path id="Vector" d="M8.41364 12.0024C8.41364 11.6841 8.54004 11.3789 8.76514 11.1538C8.99017 10.9287 9.29535 10.8022 9.61365 10.8022C9.93188 10.8022 10.2371 10.9287 10.4622 11.1538C10.6872 11.3789 10.8137 11.6841 10.8137 12.0024L10.8137 19.8022C10.8137 20.1206 10.6872 20.4258 10.4622 20.6509C10.2371 20.876 9.93188 21.0024 9.61365 21.0024C9.29535 21.0024 8.99017 20.876 8.76514 20.6509C8.54004 20.4258 8.41364 20.1206 8.41364 19.8022L8.41364 12.0024Z" fill="#E79EA8" fill-opacity="1.000000" fill-rule="nonzero"/>
	<path id="Vector" d="M11.7341 14.4204C9.11206 16.6211 7.38763 19.4185 8.80847 21.1113C10.2076 22.7793 14.0645 21.8652 16.3624 19.9355C18.6041 18.0552 19.6265 15.3335 18.2297 13.6689C16.8329 12.0049 13.9756 12.5386 11.7341 14.4204ZM10.7177 19.6138C10.7025 19.6084 10.688 19.6011 10.6744 19.5923L10.696 19.6284C10.7056 19.6353 10.7117 19.6333 10.7177 19.6138ZM14.8193 18.0972C13.4908 19.2129 11.2025 19.8037 10.7177 19.6138C10.721 19.6021 10.7238 19.5898 10.7261 19.5776C10.7717 19.3511 10.9133 19.0293 11.1437 18.6553C11.6285 17.8677 12.436 16.9644 13.2773 16.2588C14.6381 15.1162 16.084 14.8462 16.3912 15.2124C16.6984 15.5781 16.1813 16.9546 14.8193 18.0972Z" fill="#E79EA8" fill-opacity="1.000000" fill-rule="evenodd"/>
	<path id="Vector" d="M7.13202 14.4204C9.75519 16.6211 11.4784 19.4185 10.0576 21.1113C8.65839 22.7793 4.8028 21.8652 2.50482 19.9355C0.262024 18.0552 -0.759155 15.3335 0.637634 13.6689C2.03442 12.0049 4.89044 12.5386 7.13202 14.4204ZM8.1496 19.6138C8.16437 19.6084 8.17841 19.6011 8.19159 19.5923L8.17004 19.6284C8.1604 19.6353 8.15442 19.6333 8.1496 19.6138ZM4.04559 18.0981C5.37524 19.2144 7.66364 19.8047 8.14844 19.6152C8.14502 19.603 8.14221 19.5913 8.14001 19.5791C8.09442 19.3521 7.95282 19.0308 7.72241 18.6562C7.23639 17.8691 6.42999 16.9653 5.58881 16.2598C4.22681 15.1177 2.78082 14.8477 2.47479 15.2134C2.1676 15.5796 2.68359 16.9561 4.04559 18.0981Z" fill="#E79EA8" fill-opacity="1.000000" fill-rule="evenodd"/>
</svg>
