<svg width="39" height="39" viewBox="0 0 39 39" fill="none" xmlns="http://www.w3.org/2000/svg">
<g clip-path="url(#clip0_1527_12347)">
<path d="M19.5 39C30.2696 39 39 30.2696 39 19.5C39 8.73045 30.2696 0 19.5 0C8.73045 0 0 8.73045 0 19.5C0 30.2696 8.73045 39 19.5 39Z" fill="#F26A7E"/>
<path d="M11.8145 18.4102L13.4141 15.4688H15.4355L12.9512 19.6992L15.5 24H13.4551L11.8145 21.0117L10.1738 24H8.12891L10.6777 19.6992L8.19336 15.4688H10.2148L11.8145 18.4102ZM21.5059 15.4688H23.2695V24H21.5059V18.334L18.0898 24H16.332V15.4688H18.0898V21.1465L21.5059 15.4688ZM31.0391 16.8925H28.4258V24H26.668V16.8925H24.0898V15.4688H31.0391V16.8925Z" fill="white"/>
</g>
<defs>
<clipPath id="clip0_1527_12347">
<rect width="39" height="39" fill="white"/>
</clipPath>
</defs>
</svg>
