<svg width="18.000000" height="18.000000" viewBox="0 0 18 18" fill="none" xmlns="http://www.w3.org/2000/svg" xmlns:xlink="http://www.w3.org/1999/xlink">
	<desc>
			Created with Pixso.
	</desc>
	<defs/>
	<path id="Vector" d="M3.62 7.79001C5.06 10.62 7.38 12.93 10.21 14.38L12.41 12.18C12.68 11.91 13.08 11.82 13.43 11.94C14.55 12.31 15.76 12.51 17 12.51C17.55 12.51 18 12.96 18 13.51L18 17C18 17.55 17.55 18 17 18C7.60999 18 0 10.39 0 1C0 0.450012 0.450012 0 1 0L4.5 0C5.04999 0 5.5 0.450012 5.5 1C5.5 2.25 5.70001 3.45001 6.07001 4.57001C6.17999 4.92001 6.10001 5.31 5.82001 5.59L3.62 7.79001Z" fill="#000000" fill-opacity="1.000000" fill-rule="nonzero"/>
</svg>
