<?xml version="1.0" encoding="UTF-8"?> <svg xmlns="http://www.w3.org/2000/svg" width="1440" height="103" viewBox="0 0 1440 103" fill="none"> <path d="M112.073 0.000724792H0.1832L0 102.775H0.0229C64.6468 102.775 96.9817 81.7436 128.24 61.4106C157.232 42.5373 184.597 24.7332 240.13 24.7332C295.641 24.7332 323.029 42.5437 352.008 61.388L352.043 61.4106C383.325 81.7436 415.682 102.775 480.122 102.775C544.516 102.775 576.853 81.7732 608.135 61.4538L608.201 61.4106C637.194 42.5373 664.56 24.7332 720.092 24.7332C775.601 24.7332 802.99 42.5437 831.969 61.3878L832.003 61.4106L832.038 61.4314C863.309 81.7578 895.643 102.775 960.083 102.775C1024.55 102.775 1056.88 81.7436 1088.14 61.4106C1117.13 42.5373 1144.5 24.7332 1200.03 24.7332C1255.54 24.7332 1282.93 42.5437 1311.91 61.3878L1311.94 61.4106C1343.2 81.7436 1375.54 102.775 1440 102.775V0.000724792H1328.11H1200.03H1071.97H960.083H848.172H720.092H592.036H480.145H368.211H240.13H112.073Z" fill="#fff"></path> </svg> 