<svg width="26" height="26" viewBox="0 0 30 29.514" fill="none" xmlns="http://www.w3.org/2000/svg" xmlns:xlink="http://www.w3.org/1999/xlink">
	<desc>
			Created with Pixso.
	</desc>
	<defs/>
	<path id="Vector" d="M1.40601 11.514L28.594 11.514L28.594 9.51401L1.40601 9.51401L1.40601 11.514ZM28 10.92L28 11.798L30 11.798L30 10.92L28 10.92ZM24.772 27.514L5.228 27.514L5.228 29.514L24.772 29.514L24.772 27.514ZM2 11.798L2 10.92L0 10.92L0 11.798L2 11.798ZM5.79199 27.862C3.29822 22.8743 1.99994 17.3744 2 11.798L0 11.798C0 17.686 1.37 23.492 4.004 28.758L5.79199 27.862ZM5.228 27.514C5.46799 27.514 5.686 27.65 5.79199 27.862L4.004 28.758C4.11786 28.9851 4.29263 29.1761 4.50879 29.3096C4.72495 29.4431 4.97394 29.5139 5.228 29.514L5.228 27.514ZM24.208 27.862C24.2604 27.7573 24.3409 27.6693 24.4406 27.6078C24.5402 27.5464 24.6549 27.5139 24.772 27.514L24.772 29.514C25.292 29.514 25.764 29.222 25.996 28.758L24.208 27.862ZM28 11.798C28 17.374 26.7 22.874 24.208 27.862L25.996 28.758C28.6292 23.4922 30.0001 17.6855 30 11.798L28 11.798ZM28.594 11.514C28.4365 11.514 28.2854 11.4514 28.174 11.34C28.0626 11.2286 28 11.0775 28 10.92L30 10.92C30 10.5471 29.8519 10.1895 29.5882 9.92581C29.3245 9.66214 28.9669 9.51401 28.594 9.51401L28.594 11.514ZM1.40601 9.51401C1.03311 9.51401 0.675476 9.66214 0.411804 9.92581C0.148132 10.1895 0 10.5471 0 10.92L2 10.92C2 11.0775 1.93741 11.2286 1.82602 11.34C1.71463 11.4514 1.56354 11.514 1.40601 11.514L1.40601 9.51401ZM7.858 11.028L13.858 1.02802L12.14 0L6.14001 10L7.858 11.028ZM16.142 1.02802L22.142 11.028L23.858 10L17.858 0L16.142 1.02802Z" fill="#000000" fill-opacity="1.000000" fill-rule="nonzero"/>
</svg>
