<svg width="19.081116" height="19.957031" viewBox="0 0 19.0811 19.957" fill="none" xmlns="http://www.w3.org/2000/svg" xmlns:xlink="http://www.w3.org/1999/xlink">
	<desc>
			Created with Pixso.
	</desc>
	<defs/>
	<path id="Vector" d="M8.61212 0.62793L6.59204 5.67773C6.44019 6.05762 6.07245 6.30664 5.66351 6.30664L1.00201 6.30664C0.0786743 6.30664 -0.351379 7.45117 0.343506 8.05957L4.24011 11.4688C4.54327 11.7344 4.65765 12.1553 4.53027 12.5371L2.4975 18.6357C2.19281 19.5498 3.23022 20.3242 4.01965 19.7715L8.9671 16.3076C9.31146 16.0674 9.76971 16.0674 10.114 16.3076L15.0615 19.7715C15.851 20.3242 16.8884 19.5498 16.5836 18.6357L14.5508 12.5371C14.4235 12.1553 14.5378 11.7344 14.8411 11.4688L18.7376 8.05957C19.4326 7.45117 19.0025 6.30664 18.0791 6.30664L13.4176 6.30664C13.0087 6.30664 12.641 6.05762 12.4891 5.67773L10.4691 0.62793C10.1338 -0.209961 8.94739 -0.209961 8.61212 0.62793Z" fill="#E6C553" fill-opacity="1.000000" fill-rule="nonzero"/>
</svg>
