<?xml version="1.0" encoding="UTF-8"?>
<svg width="430px" height="427px" viewBox="0 0 430 427" version="1.1" xmlns="http://www.w3.org/2000/svg" xmlns:xlink="http://www.w3.org/1999/xlink">
    <!-- Generator: Sketch 53.2 (72643) - https://sketchapp.com -->
    <title>offer</title>
    <desc>Created with Sketch.</desc>
    <g id="Page-1" stroke="none" stroke-width="1" fill="none" fill-rule="evenodd">
        <g id="offer" fill="#000000" fill-rule="nonzero">
            <path d="M127.273438,185.078125 L127.257812,185.351562 C126.199219,203.894531 136.585938,221.265625 153.726562,229.59375 L153.902344,229.679688 C159.945312,232.570312 164.898438,237.335938 168.023438,243.261719 L168.09375,243.390625 C176.730469,259.835938 194.59375,269.804688 213.636719,268.804688 L213.925781,268.789062 C220.832031,268.402344 227.6875,270.183594 233.53125,273.886719 C249.65625,283.972656 270.125,283.972656 286.25,273.886719 C292.09375,270.183594 298.949219,268.402344 305.855469,268.789062 L306.144531,268.804688 C325.15625,269.8125 343.042969,259.835938 351.699219,243.363281 L351.742188,243.273438 C354.878906,237.332031 359.84375,232.558594 365.90625,229.664062 L366.046875,229.59375 C383.1875,221.261719 393.578125,203.894531 392.515625,185.347656 L392.5,185.089844 C392.148438,178.558594 393.960938,172.09375 397.664062,166.699219 C408.324219,151.152344 408.324219,130.652344 397.667969,115.101562 C393.96875,109.710938 392.148438,103.25 392.5,96.71875 L392.515625,96.445312 C393.578125,77.898438 383.1875,60.53125 366.03125,52.195312 L365.875,52.117188 C359.84375,49.234375 354.902344,44.492188 351.773438,38.582031 L351.683594,38.40625 C343.042969,21.960938 325.15625,11.996094 306.144531,12.992188 L305.851562,13.007812 C298.949219,13.394531 292.09375,11.613281 286.253906,7.910156 L286.246094,7.910156 C270.121094,-2.175781 249.652344,-2.175781 233.527344,7.910156 C227.683594,11.609375 220.828125,13.390625 213.921875,13.003906 L213.632812,12.988281 C194.617188,11.980469 176.734375,21.957031 168.097656,38.398438 L168.03125,38.519531 C164.902344,44.457031 159.945312,49.226562 153.894531,52.121094 L153.730469,52.199219 C136.589844,60.527344 126.199219,77.898438 127.261719,96.445312 L127.277344,96.703125 C127.628906,103.234375 125.816406,109.699219 122.113281,115.089844 C111.453125,130.640625 111.453125,151.144531 122.113281,166.691406 C125.8125,172.082031 127.628906,178.546875 127.273438,185.078125 L127.273438,185.078125 Z M135.28125,124.175781 C140.996094,115.855469 143.796875,105.878906 143.25,95.800781 L143.234375,95.527344 C142.671875,83.238281 149.570312,71.824219 160.707031,66.601562 L160.84375,66.535156 C169.980469,62.160156 177.460938,54.957031 182.179688,45.996094 L182.257812,45.847656 C187.996094,34.917969 200.015625,28.292969 212.78125,28.972656 L213.0625,28.984375 C223.277344,29.558594 233.414062,26.925781 242.054688,21.449219 C252.964844,14.625 266.808594,14.625 277.71875,21.449219 C286.359375,26.917969 296.496094,29.554688 306.707031,28.988281 L306.988281,28.972656 C319.816406,28.300781 331.777344,34.917969 337.5,45.816406 L337.605469,46.015625 C342.324219,54.964844 349.796875,62.15625 358.921875,66.527344 L359.054688,66.59375 C370.367188,72.09375 377.234375,83.449219 376.542969,95.53125 L376.527344,95.816406 C375.980469,105.894531 378.785156,115.867188 384.5,124.1875 C391.40625,134.261719 391.402344,147.542969 384.492188,157.613281 C378.78125,165.9375 375.980469,175.914062 376.527344,185.992188 L376.542969,186.261719 C377.234375,198.34375 370.367188,209.703125 359.050781,215.207031 L358.933594,215.261719 C349.789062,219.644531 342.300781,226.855469 337.578125,235.832031 L337.519531,235.949219 C331.777344,246.878906 319.777344,253.507812 306.992188,252.824219 L306.714844,252.808594 C296.5,252.238281 286.359375,254.875 277.714844,260.347656 C266.808594,267.167969 252.964844,267.167969 242.058594,260.347656 C234.199219,255.367188 225.082031,252.726562 215.777344,252.734375 C214.875,252.734375 213.96875,252.757812 213.0625,252.808594 L212.78125,252.820312 C200.183594,253.621094 188.265625,247.027344 182.246094,235.929688 L182.164062,235.777344 C177.453125,226.832031 169.984375,219.644531 160.863281,215.273438 L160.714844,215.199219 C149.398438,209.699219 142.53125,198.339844 143.226562,186.261719 L143.242188,185.976562 C143.785156,175.898438 140.980469,165.921875 135.269531,157.605469 C128.367188,147.53125 128.371094,134.25 135.28125,124.183594 L135.28125,124.175781 Z" id="Shape"></path>
            <path d="M208.269531,223.601562 C212.015625,225.941406 216.949219,224.796875 219.289062,221.050781 L314.058594,69.230469 C315.605469,66.804688 315.734375,63.734375 314.390625,61.191406 C313.046875,58.644531 310.4375,57.019531 307.5625,56.929688 C304.6875,56.839844 301.984375,58.300781 300.484375,60.757812 L205.71875,212.578125 C203.378906,216.328125 204.519531,221.261719 208.269531,223.601562 L208.269531,223.601562 Z" id="Path"></path>
            <path d="M216.761719,141.292969 C236.242188,141.292969 252.09375,123.21875 252.09375,101.003906 C252.09375,78.789062 236.242188,60.71875 216.761719,60.71875 C197.28125,60.71875 181.433594,78.789062 181.433594,101.003906 C181.433594,123.21875 197.28125,141.292969 216.761719,141.292969 Z M216.761719,76.71875 C227.421875,76.71875 236.09375,87.613281 236.09375,101.003906 C236.09375,114.394531 227.421875,125.292969 216.761719,125.292969 C206.105469,125.292969 197.433594,114.390625 197.433594,101.003906 C197.433594,87.617188 206.105469,76.71875 216.761719,76.71875 Z" id="Shape"></path>
            <path d="M267.683594,180.800781 C267.683594,203.015625 283.53125,221.085938 303.011719,221.085938 C322.492188,221.085938 338.34375,203.011719 338.34375,180.800781 C338.34375,158.59375 322.496094,140.515625 303.015625,140.515625 C283.53125,140.515625 267.683594,158.582031 267.683594,180.800781 L267.683594,180.800781 Z M322.34375,180.800781 C322.34375,194.191406 313.671875,205.085938 303.011719,205.085938 C292.355469,205.085938 283.683594,194.191406 283.683594,180.800781 C283.683594,167.410156 292.355469,156.515625 303.011719,156.515625 C313.671875,156.515625 322.34375,167.402344 322.34375,180.800781 Z" id="Shape"></path>
            <path d="M428.652344,313.644531 C418.058594,294.84375 394.566406,287.683594 375.289062,297.378906 L312.621094,326.988281 C303.96875,310.898438 287.371094,300.65625 269.105469,300.140625 L211.253906,298.546875 C202.09375,298.285156 193.105469,295.960938 184.960938,291.757812 L179.074219,288.707031 C148.933594,272.996094 113.007812,273.035156 82.898438,288.808594 L83.265625,275.472656 C83.386719,271.054688 79.90625,267.375 75.488281,267.253906 L12.050781,265.507812 C7.632812,265.386719 3.957031,268.867188 3.835938,273.285156 L0.00390625,412.5 C-0.117188,416.917969 3.363281,420.597656 7.78125,420.71875 L71.21875,422.464844 L71.441406,422.464844 C75.773438,422.460938 79.316406,419.011719 79.4375,414.683594 L79.617188,408.023438 L96.097656,399.199219 C102.566406,395.71875 110.132812,394.890625 117.199219,396.890625 L215.609375,424.511719 C215.78125,424.5625 215.953125,424.601562 216.128906,424.640625 C223.242188,426.128906 230.492188,426.875 237.761719,426.871094 C253.152344,426.878906 268.363281,423.5625 282.351562,417.140625 C282.695312,416.984375 283.027344,416.804688 283.34375,416.601562 L426.03125,324.300781 C429.589844,322.003906 430.738281,317.328125 428.652344,313.644531 L428.652344,313.644531 Z M16.21875,404.941406 L19.609375,281.726562 L67.054688,283.03125 L63.660156,406.25 L16.21875,404.941406 Z M275.140625,402.84375 C257.761719,410.6875 238.351562,412.851562 219.671875,409.03125 L121.523438,381.488281 C110.480469,378.363281 98.652344,379.660156 88.546875,385.09375 L80.125,389.601562 L82.382812,307.675781 C109.066406,289.925781 143.292969,288.101562 171.714844,302.910156 L177.601562,305.960938 C187.890625,311.273438 199.242188,314.207031 210.816406,314.539062 L268.667969,316.132812 C284.917969,316.597656 298.71875,328.167969 302.015625,344.089844 L215.84375,341.71875 C211.425781,341.597656 207.75,345.078125 207.628906,349.496094 C207.507812,353.914062 210.988281,357.59375 215.40625,357.714844 L310.503906,360.332031 L310.730469,360.332031 C315.058594,360.328125 318.601562,356.878906 318.722656,352.550781 C318.820312,349.074219 318.558594,345.59375 317.949219,342.171875 L382.214844,311.800781 L382.402344,311.710938 C391.519531,307.09375 402.546875,308.636719 410.042969,315.578125 L275.140625,402.84375 Z" id="Shape"></path>
        </g>
    </g>
</svg>