<svg width="20.004089" height="19.621124" viewBox="0 0 20.0041 19.6211" fill="none" xmlns="http://www.w3.org/2000/svg" xmlns:xlink="http://www.w3.org/1999/xlink">
	<desc>
			Created with Pixso.
	</desc>
	<defs/>
	<path id="Vector" d="M1.53284 10.4728C1.88463 11.3041 2.40024 12.0593 3.05025 12.6955C3.70026 13.3317 4.47194 13.8363 5.32121 14.1806C6.1705 14.5249 7.08075 14.7021 8 14.7021C8.91925 14.7021 9.8295 14.5249 10.6788 14.1806C11.5281 13.8363 12.2997 13.3317 12.9498 12.6955C13.5998 12.0593 14.1154 11.3041 14.4672 10.4728C14.8189 9.64163 15 8.75076 15 7.85107C15 6.95135 14.8189 6.06049 14.4672 5.22928C14.1154 4.39807 13.5998 3.64282 12.9498 3.00662C12.2997 2.37045 11.5281 1.86581 10.6788 1.52151C9.8295 1.17722 8.91925 1 8 1C7.08075 1 6.1705 1.17722 5.32121 1.52151C4.47194 1.86581 3.70026 2.37045 3.05025 3.00662C2.40024 3.64282 1.88463 4.39807 1.53284 5.22928C1.18106 6.06049 1 6.95135 1 7.85107C1 8.75076 1.18106 9.64163 1.53284 10.4728ZM19 18.617L13 12.7447" stroke="#000000" stroke-opacity="1.000000" stroke-width="2.000000" stroke-linejoin="round" stroke-linecap="round"/>
</svg>
