<svg width="18.000000" height="18.000000" viewBox="0 0 18 18" fill="none" xmlns="http://www.w3.org/2000/svg" xmlns:xlink="http://www.w3.org/1999/xlink">
	<desc>
			Created with Pixso.
	</desc>
	<defs/>
	<path id="Vector" d="M15.3769 2.61905C14.5476 1.78558 13.5599 1.12476 12.4712 0.67511C11.3826 0.225433 10.2149 -0.00402832 9.03618 6.10352e-05C4.09749 6.10352e-05 0.0723648 4.00504 0.0723648 8.91904C0.0723648 10.494 0.488441 12.024 1.26633 13.374L0 18L4.74874 16.758C6.0603 17.469 7.53467 17.847 9.03618 17.847C13.9749 17.847 18 13.842 18 8.92804C18 6.54303 17.0683 4.30203 15.3769 2.61905ZM9.03618 16.335C7.69749 16.335 6.38593 15.975 5.23718 15.3L4.96583 15.138L2.14371 15.876L2.89447 13.14L2.71357 12.861C1.96982 11.6793 1.5749 10.3134 1.57387 8.91904C1.57387 4.83304 4.9206 1.50305 9.02713 1.50305C11.0171 1.50305 12.8895 2.27704 14.2915 3.68103C14.9857 4.36862 15.5358 5.18643 15.91 6.08713C16.2842 6.98779 16.475 7.95343 16.4714 8.92804C16.4894 13.014 13.1427 16.335 9.03618 16.335ZM13.1246 10.791C12.8985 10.683 11.795 10.143 11.596 10.062C11.3879 9.99002 11.2432 9.95401 11.0894 10.17C10.9357 10.395 10.5106 10.899 10.3839 11.043C10.2573 11.196 10.1216 11.214 9.89548 11.097C9.66934 10.989 8.94572 10.746 8.09547 9.99002C7.42613 9.39603 6.98291 8.66702 6.84724 8.44202C6.7206 8.21704 6.82915 8.10004 6.94673 7.98303C7.04623 7.88403 7.17287 7.72202 7.28141 7.59604C7.38995 7.47003 7.43517 7.37103 7.50754 7.22702C7.5799 7.07404 7.54372 6.94803 7.48945 6.84003C7.43517 6.73203 6.98291 5.63403 6.80201 5.18405C6.6211 4.75204 6.43115 4.80603 6.29548 4.79703L5.86131 4.79703C5.70753 4.79703 5.47236 4.85104 5.26432 5.07605C5.06532 5.30103 4.48643 5.84103 4.48643 6.93903C4.48643 8.03702 5.29146 9.09903 5.4 9.24304C5.50854 9.39603 6.98291 11.646 9.22613 12.609C9.7598 12.843 10.1759 12.978 10.5015 13.077C11.0352 13.248 11.5236 13.221 11.9126 13.167C12.3467 13.104 13.2422 12.627 13.4231 12.105C13.6131 11.583 13.6131 11.142 13.5497 11.043C13.4864 10.944 13.3508 10.899 13.1246 10.791Z" fill="#000000" fill-opacity="1.000000" fill-rule="nonzero"/>
</svg>
